<?xml version="1.0" encoding="UTF-8"?>
<svg xmlns="http://www.w3.org/2000/svg" xmlns:xlink="http://www.w3.org/1999/xlink" viewBox="0 0 500 500" width="500px" height="500px">
<g id="surface82202082">
<path style=" stroke:none;fill-rule:nonzero;fill:rgb(50.588238%,18.82353%,76.47059%);fill-opacity:1;" d="M 210 30 C 116.015625 30 40 106.015625 40 200 C 40 293.984375 116.015625 370 210 370 C 243.554688 370 274.609375 360.15625 300.9375 343.4375 L 423.75 466.25 L 466.25 423.75 L 345 302.8125 C 366.796875 274.21875 380 238.789062 380 200 C 380 106.015625 303.984375 30 210 30 Z M 210 70 C 281.992188 70 340 128.007812 340 200 C 340 271.992188 281.992188 330 210 330 C 138.007812 330 80 271.992188 80 200 C 80 128.007812 138.007812 70 210 70 Z M 210 70 "/>
</g>
</svg>
